<svg width="45" height="59" viewBox="0 0 45 59" fill="none" xmlns="http://www.w3.org/2000/svg">
<path d="M41.229 0H3.55421C1.59464 0 0 1.59464 0 3.55421V55.4464C0 57.406 1.59464 59.0006 3.55421 59.0006H41.229C43.1885 59.0006 44.7832 57.406 44.7832 55.4464V3.55421C44.7832 1.59404 43.1885 0 41.229 0ZM22.3916 2.04369C22.6857 2.04369 22.9247 2.28273 22.9247 2.57685C22.9247 2.87096 22.6857 3.1094 22.3916 3.1094C22.0975 3.1094 21.8584 2.87036 21.8584 2.57624C21.8584 2.28213 22.0975 2.04369 22.3916 2.04369ZM22.3916 57.0447C21.8027 57.0447 21.3253 56.5678 21.3253 55.9784C21.3253 55.3889 21.8027 54.9114 22.3916 54.9114C22.9804 54.9114 23.4579 55.3889 23.4579 55.9784C23.4579 56.5678 22.9804 57.0447 22.3916 57.0447ZM41.94 53.7567H2.84313V5.24205H41.94V53.7567Z" fill="black"/>
<path d="M22.4999 39.8459C24.0656 39.8459 25.335 38.5766 25.335 37.0108C25.335 35.445 24.0656 34.1757 22.4999 34.1757C20.9341 34.1757 19.6647 35.445 19.6647 37.0108C19.6647 38.5766 20.9341 39.8459 22.4999 39.8459Z" fill="black"/>
<path d="M22.4999 29.4504C20.0635 29.4504 17.7624 30.6355 16.3444 32.6206C15.9399 33.1869 16.071 33.9738 16.6373 34.3783C16.8592 34.5369 17.1151 34.6132 17.3686 34.6132C17.7618 34.6132 18.1491 34.4297 18.3949 34.0855C19.341 32.7611 20.8755 31.9705 22.4998 31.9705C24.1243 31.9705 25.6588 32.7611 26.6047 34.0854C27.0091 34.6516 27.7961 34.783 28.3624 34.3784C28.9287 33.9739 29.0599 33.1869 28.6554 32.6206C27.2376 30.6354 24.9364 29.4504 22.4999 29.4504Z" fill="black"/>
<path d="M22.4999 24.7252C19.0196 24.7252 15.6882 26.2113 13.36 28.8022C12.8949 29.3199 12.9374 30.1166 13.4551 30.5817C13.6958 30.798 13.9968 30.9046 14.2969 30.9046C14.642 30.9045 14.9857 30.7636 15.2345 30.4867C17.0855 28.4268 19.7337 27.2454 22.5 27.2454C25.2663 27.2454 27.9146 28.4268 29.7657 30.4866C30.2308 31.0043 31.0275 31.0468 31.5451 30.5817C32.0627 30.1165 32.1052 29.3198 31.6401 28.8022C29.3117 26.2112 25.9803 24.7252 22.4999 24.7252Z" fill="black"/>
<path d="M34.6391 25.0956C31.4135 21.8096 27.1024 20 22.4999 20C17.8977 20 13.5866 21.8096 10.3609 25.0957C9.87335 25.5923 9.88073 26.3901 10.3773 26.8776C10.6226 27.1183 10.9414 27.2385 11.26 27.2384C11.5863 27.2384 11.9125 27.1123 12.1592 26.8611C14.9073 24.0617 18.5797 22.5201 22.4999 22.5201C26.4204 22.5201 30.0928 24.0617 32.8406 26.861C33.3282 27.3576 34.1259 27.3649 34.6225 26.8775C35.1191 26.39 35.1265 25.5922 34.6391 25.0956Z" fill="black"/>
</svg>
