<svg width="37" height="37" viewBox="0 0 37 37" fill="none" xmlns="http://www.w3.org/2000/svg">
<path fill-rule="evenodd" clip-rule="evenodd" d="M0.583313 18.5C0.583313 8.60489 8.60488 0.583328 18.5 0.583328C28.3951 0.583328 36.4166 8.60489 36.4166 18.5C36.4166 24.2027 33.7523 29.2832 29.6006 32.5645C28.8497 30.4005 27.4799 28.4967 25.6529 27.0948C23.6009 25.5202 21.0866 24.6667 18.5 24.6667C15.9134 24.6667 13.3991 25.5201 11.347 27.0948C9.52001 28.4967 8.1503 30.4005 7.39938 32.5645C3.24762 29.2832 0.583313 24.2027 0.583313 18.5ZM24.4354 28.6815C26.1034 29.9613 27.312 31.7453 27.8828 33.7663C25.1539 35.4471 21.9402 36.4167 18.5 36.4167C15.0598 36.4167 11.846 35.4471 9.11713 33.7663C9.68798 31.7453 10.8966 29.9613 12.5646 28.6815C14.2673 27.3749 16.3537 26.6667 18.5 26.6667C20.6463 26.6667 22.7326 27.3749 24.4354 28.6815ZM14.125 13.125C14.125 10.7087 16.0837 8.75 18.5 8.75C20.9162 8.75 22.875 10.7087 22.875 13.125C22.875 15.5412 20.9162 17.5 18.5 17.5C16.0837 17.5 14.125 15.5412 14.125 13.125ZM18.5 6.74999C14.9792 6.74999 12.125 9.60418 12.125 13.125C12.125 16.6458 14.9792 19.5 18.5 19.5C22.0208 19.5 24.875 16.6458 24.875 13.125C24.875 9.60418 22.0208 6.74999 18.5 6.74999Z" fill="#222222"/>
<rect x="1.08331" y="1.08333" width="34.8333" height="34.8333" rx="17.4167" stroke="#222222"/>
</svg>
