<svg width="49" height="41" viewBox="0 0 49 41" fill="none" xmlns="http://www.w3.org/2000/svg">
<path fill-rule="evenodd" clip-rule="evenodd" d="M48.8771 24.2282C48.712 25.3247 48.2942 26.3679 47.6567 27.2756C47.0192 28.1833 46.1799 28.9304 45.2042 29.4579C44.934 29.6078 44.6508 29.7335 44.3587 29.8337C44.73 34.7547 36.91 36.5442 32.6958 35.3721L34.2616 40.8479L30.2353 40.9911L23.1892 30.9029C20.8137 31.5739 18.0087 31.8961 16.1968 28.9882C16.0323 28.7211 15.8829 28.4446 15.7495 28.1605C15.2886 28.2545 14.8196 28.3023 14.3492 28.3037C13.0071 28.3037 10.7703 27.9011 9.63395 27.1137C8.73308 26.5164 8.01841 25.6776 7.57158 24.6934C5.15131 25.0245 3.09789 24.4563 1.75579 23.0516C0.0557862 21.3024 -0.427372 18.4124 0.458418 15.3121C1.62605 11.1739 5.17816 6.51237 12.2376 4.76316C12.85 4.00183 13.583 3.34599 14.4074 2.82158C18.8408 -0.0192092 26.0389 -0.265263 31.5013 2.43237C33.619 2.03788 35.805 2.24716 37.8092 3.03632C41.7371 4.50816 44.5913 7.58605 45.1282 10.7132C46.1916 11.2642 47.0621 12.1254 47.6245 13.1826C48.8011 15.3926 48.9666 17.6071 48.1747 19.3966C48.9205 20.8903 49.167 22.5841 48.8771 24.2282ZM45.9782 21.9018C45.3527 22.232 44.6566 22.4047 43.9493 22.4047C43.2421 22.4047 42.5459 22.232 41.9205 21.9018L42.2471 19.7321C43.625 19.8663 44.7479 19.4368 45.3339 18.5555C45.9916 17.5758 45.8887 16.1218 45.0566 14.5605C44.126 12.8113 42.1174 12.5339 41.0034 12.5205H40.9318C38.1403 12.5205 35.295 14.1087 34.1453 16.18L32.4721 15.3792C32.8011 14.3122 33.36 13.3303 34.1095 12.5026C33.4642 11.9548 32.9765 11.2449 32.6965 10.4461C32.4166 9.64721 32.3546 8.78818 32.5168 7.95737L34.1676 7.80526C34.2432 8.47721 34.521 9.11033 34.9644 9.62082C35.4078 10.1313 35.996 10.4951 36.6505 10.6639C38.0275 10.0493 39.5226 9.74394 41.0303 9.76921C41.245 9.76921 41.4508 9.79158 41.661 9.805C40.5914 7.90869 38.8963 6.4428 36.8653 5.65789C31.9084 3.73421 28.5666 6.71816 27.8016 7.7471C25.9584 10.2166 27.1395 12.5518 28.0387 14.0684L26.5624 15.4105C25.2766 14.2984 24.4139 12.7767 24.1197 11.1024C22.2274 11.6705 19.6863 11.5497 18.2637 9.12053L19.6058 8.19895C21.1134 9.32632 23.5068 9.2279 24.6432 7.83658C24.9139 7.2214 25.2563 6.64027 25.6632 6.10526C26.3092 5.25213 27.0887 4.50887 27.9716 3.90421C24.2629 2.89316 19.0242 3.05869 15.8568 5.08974C15.0009 5.58676 14.2964 6.30734 13.8188 7.17425C13.3412 8.04121 13.1086 9.02175 13.1458 10.0108C13.1458 11.6079 14.3984 14.1311 16.085 14.5247L15.1053 16.4261C14.0292 16.1768 13.0522 15.6113 12.3003 14.8021L10.8463 16.6542L9.39237 15.9474L10.815 12.2253C10.5825 11.5023 10.4634 10.7478 10.4616 9.98842C10.4652 9.3872 10.5281 8.78782 10.6495 8.19895C6.17579 10.0466 3.96579 13.12 3.15605 15.9295C2.53421 18.0903 2.77579 20.0408 3.79579 21.0876C4.60552 21.9197 5.84473 22.1166 7.01237 22.0405L10.1439 19.6024L11.1729 20.4703L10.2424 23.5213C10.73 25.0737 12.3271 25.8745 15.2395 25.3108C15.3905 24.0756 15.878 22.9057 16.6487 21.9287C17.2138 21.1154 17.9615 20.4461 18.8318 19.9737L20.3618 15.8534L21.8918 15.7863L21.7263 19.1639C24.2987 18.9 27.1753 19.4234 29.855 19.0208L30.3471 20.8103C26.4192 22.6266 22.3974 19.665 18.7513 23.5705C17.4405 24.9753 17.9416 26.1966 18.7513 27.4268C19.9189 29.185 22.111 28.1292 24.3524 27.4268C27.7479 26.389 30.2129 25.6374 34.861 26.0176C33.7516 23.9105 33.8589 21.365 35.3442 18.5645L37.5318 19.4279C35.9974 22.9666 37.4334 25.0155 38.4266 25.9192C39.961 27.315 42.2695 27.7355 43.795 26.8945C44.3793 26.5719 44.8817 26.1192 45.2633 25.5716C45.6449 25.024 45.8954 24.3959 45.9961 23.7361C46.0967 23.1281 46.0891 22.5071 45.9737 21.9018H45.9782Z" fill="white"/>
</svg>
